<svg width="154" height="35" viewBox="0 0 154 35" fill="none" xmlns="http://www.w3.org/2000/svg">
<path d="M2 7C2 7.13261 2.05268 7.25979 2.14645 7.35355C2.24021 7.44732 2.36739 7.5 2.5 7.5H13.5C13.6326 7.5 13.7598 7.44732 13.8536 7.35355C13.9473 7.25979 14 7.13261 14 7C14 6.86739 13.9473 6.74021 13.8536 6.64645C13.7598 6.55268 13.6326 6.5 13.5 6.5H2.5C2.36739 6.5 2.24021 6.55268 2.14645 6.64645C2.05268 6.74021 2 6.86739 2 7ZM4 5C4 5.13261 4.05268 5.25979 4.14645 5.35355C4.24021 5.44732 4.36739 5.5 4.5 5.5H11.5C11.6326 5.5 11.7598 5.44732 11.8536 5.35355C11.9473 5.25979 12 5.13261 12 5C12 4.86739 11.9473 4.74021 11.8536 4.64645C11.7598 4.55268 11.6326 4.5 11.5 4.5H4.5C4.36739 4.5 4.24021 4.55268 4.14645 4.64645C4.05268 4.74021 4 4.86739 4 5ZM6.765 10.576C6.68931 10.5287 6.60235 10.5025 6.51312 10.5002C6.4239 10.4978 6.33568 10.5194 6.25762 10.5627C6.17955 10.6059 6.11449 10.6693 6.06919 10.7462C6.02389 10.8231 6 10.9107 6 11V16C6 16.0893 6.02389 16.1769 6.06919 16.2538C6.11449 16.3307 6.17955 16.3941 6.25762 16.4373C6.33568 16.4806 6.4239 16.5022 6.51312 16.4998C6.60235 16.4975 6.68931 16.4713 6.765 16.424L10.765 13.924C10.8369 13.8791 10.8962 13.8166 10.9373 13.7424C10.9784 13.6682 11 13.5848 11 13.5C11 13.4152 10.9784 13.3318 10.9373 13.2576C10.8962 13.1834 10.8369 13.1209 10.765 13.076L6.765 10.576Z" fill="black"/>
<path d="M1.5 18.5C1.10218 18.5 0.720644 18.342 0.43934 18.0607C0.158035 17.7794 0 17.3978 0 17L0 10C0 9.60218 0.158035 9.22064 0.43934 8.93934C0.720644 8.65804 1.10218 8.5 1.5 8.5H14.5C14.8978 8.5 15.2794 8.65804 15.5607 8.93934C15.842 9.22064 16 9.60218 16 10V17C16 17.3978 15.842 17.7794 15.5607 18.0607C15.2794 18.342 14.8978 18.5 14.5 18.5H1.5ZM14.5 17.5C14.6326 17.5 14.7598 17.4473 14.8536 17.3536C14.9473 17.2598 15 17.1326 15 17V10C15 9.86739 14.9473 9.74021 14.8536 9.64645C14.7598 9.55268 14.6326 9.5 14.5 9.5H1.5C1.36739 9.5 1.24021 9.55268 1.14645 9.64645C1.05268 9.74021 1 9.86739 1 10V17C1 17.1326 1.05268 17.2598 1.14645 17.3536C1.24021 17.4473 1.36739 17.5 1.5 17.5H14.5Z" fill="black"/>
<g filter="url(#filter0_d)">
<path d="M25.525 11.6C25.525 10.95 25.64 10.31 25.87 9.68C26.1 9.05 26.435 8.48 26.875 7.97C27.325 7.46 27.865 7.055 28.495 6.755C29.135 6.445 29.865 6.29 30.685 6.29C31.645 6.29 32.475 6.505 33.175 6.935C33.875 7.365 34.395 7.925 34.735 8.615L33.415 9.5C33.215 9.07 32.96 8.735 32.65 8.495C32.35 8.245 32.02 8.07 31.66 7.97C31.31 7.86 30.965 7.805 30.625 7.805C30.065 7.805 29.575 7.92 29.155 8.15C28.735 8.37 28.38 8.665 28.09 9.035C27.81 9.405 27.595 9.82 27.445 10.28C27.305 10.74 27.235 11.2 27.235 11.66C27.235 12.35 27.38 12.995 27.67 13.595C27.97 14.185 28.375 14.665 28.885 15.035C29.405 15.395 30 15.575 30.67 15.575C31.01 15.575 31.365 15.515 31.735 15.395C32.105 15.275 32.445 15.09 32.755 14.84C33.065 14.58 33.315 14.24 33.505 13.82L34.9 14.615C34.68 15.145 34.335 15.595 33.865 15.965C33.405 16.335 32.885 16.615 32.305 16.805C31.735 16.995 31.17 17.09 30.61 17.09C29.86 17.09 29.175 16.935 28.555 16.625C27.935 16.305 27.4 15.885 26.95 15.365C26.5 14.835 26.15 14.245 25.9 13.595C25.65 12.935 25.525 12.27 25.525 11.6ZM36.2439 17V9.155H37.9539L40.6539 14L43.3689 9.155H45.0489V17H43.4739V11.48L41.1639 15.605H40.1289L37.8039 11.48V17H36.2439ZM50.5502 17.15C49.7302 17.15 49.0152 16.965 48.4052 16.595C47.8052 16.215 47.3402 15.72 47.0102 15.11C46.6802 14.49 46.5152 13.815 46.5152 13.085C46.5152 12.355 46.6802 11.685 47.0102 11.075C47.3502 10.455 47.8202 9.96 48.4202 9.59C49.0302 9.21 49.7402 9.02 50.5502 9.02C51.3602 9.02 52.0652 9.21 52.6652 9.59C53.2752 9.96 53.7452 10.455 54.0752 11.075C54.4152 11.685 54.5852 12.355 54.5852 13.085C54.5852 13.815 54.4202 14.49 54.0902 15.11C53.7602 15.72 53.2902 16.215 52.6802 16.595C52.0802 16.965 51.3702 17.15 50.5502 17.15ZM48.2102 13.1C48.2102 13.6 48.3152 14.05 48.5252 14.45C48.7352 14.85 49.0152 15.165 49.3652 15.395C49.7152 15.625 50.1102 15.74 50.5502 15.74C50.9802 15.74 51.3702 15.625 51.7202 15.395C52.0802 15.155 52.3652 14.835 52.5752 14.435C52.7852 14.035 52.8902 13.585 52.8902 13.085C52.8902 12.585 52.7852 12.135 52.5752 11.735C52.3652 11.335 52.0802 11.02 51.7202 10.79C51.3702 10.55 50.9802 10.43 50.5502 10.43C50.1202 10.43 49.7252 10.55 49.3652 10.79C49.0152 11.02 48.7352 11.34 48.5252 11.75C48.3152 12.15 48.2102 12.6 48.2102 13.1ZM57.9086 17V10.61H55.3136V9.155H62.1686V10.61H59.5586V17H57.9086ZM67.8571 17.15C67.2271 17.15 66.6721 17 66.1921 16.7C65.7121 16.4 65.3321 16.01 65.0521 15.53V20.195H63.4021V9.155H64.8571V10.565C65.1571 10.095 65.5471 9.72 66.0271 9.44C66.5071 9.16 67.0421 9.02 67.6321 9.02C68.3521 9.02 68.9871 9.21 69.5371 9.59C70.0971 9.96 70.5371 10.455 70.8571 11.075C71.1771 11.685 71.3371 12.35 71.3371 13.07C71.3371 13.83 71.1871 14.52 70.8871 15.14C70.5871 15.75 70.1771 16.24 69.6571 16.61C69.1371 16.97 68.5371 17.15 67.8571 17.15ZM67.3171 15.74C67.7871 15.74 68.1921 15.615 68.5321 15.365C68.8821 15.105 69.1521 14.775 69.3421 14.375C69.5421 13.965 69.6421 13.53 69.6421 13.07C69.6421 12.59 69.5321 12.15 69.3121 11.75C69.1021 11.35 68.8121 11.03 68.4421 10.79C68.0821 10.55 67.6671 10.43 67.1971 10.43C66.9171 10.43 66.6221 10.5 66.3121 10.64C66.0121 10.78 65.7471 10.965 65.5171 11.195C65.2871 11.425 65.1321 11.685 65.0521 11.975V14.03C65.2521 14.51 65.5571 14.915 65.9671 15.245C66.3871 15.575 66.8371 15.74 67.3171 15.74ZM76.3761 17.15C75.5661 17.15 74.8561 16.965 74.2461 16.595C73.6361 16.225 73.1611 15.735 72.8211 15.125C72.4811 14.505 72.3111 13.83 72.3111 13.1C72.3111 12.36 72.4811 11.68 72.8211 11.06C73.1611 10.44 73.6361 9.945 74.2461 9.575C74.8561 9.205 75.5711 9.02 76.3911 9.02C77.2111 9.02 77.9211 9.21 78.5211 9.59C79.1211 9.96 79.5811 10.45 79.9011 11.06C80.2311 11.67 80.3961 12.325 80.3961 13.025C80.3961 13.275 80.3811 13.475 80.3511 13.625H74.0661C74.0961 14.085 74.2211 14.49 74.4411 14.84C74.6711 15.18 74.9561 15.45 75.2961 15.65C75.6461 15.84 76.0261 15.935 76.4361 15.935C76.8761 15.935 77.2911 15.825 77.6811 15.605C78.0711 15.385 78.3411 15.095 78.4911 14.735L79.9011 15.14C79.6311 15.73 79.1811 16.215 78.5511 16.595C77.9311 16.965 77.2061 17.15 76.3761 17.15ZM74.0211 12.53H78.7611C78.7211 12.08 78.5911 11.685 78.3711 11.345C78.1511 10.995 77.8661 10.725 77.5161 10.535C77.1761 10.335 76.7961 10.235 76.3761 10.235C75.9661 10.235 75.5861 10.335 75.2361 10.535C74.8961 10.725 74.6161 10.995 74.3961 11.345C74.1761 11.685 74.0511 12.08 74.0211 12.53ZM83.602 17V10.61H81.007V9.155H87.862V10.61H85.252V17H83.602ZM89.0955 17V9.155H90.7455V11.735H92.6205C93.5505 11.735 94.2555 11.97 94.7355 12.44C95.2255 12.91 95.4705 13.53 95.4705 14.3C95.4705 15.08 95.2355 15.725 94.7655 16.235C94.3055 16.745 93.6255 17 92.7255 17H89.0955ZM90.7455 15.725H92.4705C92.9605 15.725 93.3155 15.59 93.5355 15.32C93.7555 15.04 93.8655 14.71 93.8655 14.33C93.8655 13.96 93.7605 13.64 93.5505 13.37C93.3405 13.1 92.9755 12.965 92.4555 12.965H90.7455V15.725ZM100.521 17V9.155H104.721C105.221 9.155 105.631 9.25 105.951 9.44C106.281 9.62 106.526 9.855 106.686 10.145C106.846 10.435 106.926 10.745 106.926 11.075C106.926 11.505 106.821 11.885 106.611 12.215C106.411 12.545 106.121 12.795 105.741 12.965C106.191 13.095 106.556 13.325 106.836 13.655C107.126 13.985 107.271 14.4 107.271 14.9C107.271 15.59 107.026 16.115 106.536 16.475C106.046 16.825 105.396 17 104.586 17H100.521ZM102.081 12.515H104.301C104.611 12.515 104.866 12.4 105.066 12.17C105.266 11.94 105.366 11.67 105.366 11.36C105.366 11.07 105.271 10.82 105.081 10.61C104.891 10.4 104.641 10.295 104.331 10.295H102.081V12.515ZM102.081 15.86H104.541C104.861 15.86 105.131 15.75 105.351 15.53C105.571 15.3 105.681 15.03 105.681 14.72C105.681 14.4 105.576 14.13 105.366 13.91C105.156 13.69 104.891 13.58 104.571 13.58H102.081V15.86ZM108.842 17V9.17H110.492V14.795L114.467 9.155H115.967V17H114.317V11.495L110.387 17H108.842ZM117.188 18.875V15.545H117.368C117.648 15.545 117.898 15.435 118.118 15.215C118.348 14.995 118.533 14.595 118.673 14.015C118.823 13.435 118.913 12.605 118.943 11.525L119.033 9.155H124.628V15.545H125.708V18.875H124.253V17H118.628V18.875H117.188ZM119.543 15.545H122.978V10.58H120.488L120.443 11.675C120.393 12.825 120.293 13.7 120.143 14.3C120.003 14.9 119.803 15.315 119.543 15.545ZM130.663 17.15C129.853 17.15 129.143 16.965 128.533 16.595C127.923 16.225 127.448 15.735 127.108 15.125C126.768 14.505 126.598 13.83 126.598 13.1C126.598 12.36 126.768 11.68 127.108 11.06C127.448 10.44 127.923 9.945 128.533 9.575C129.143 9.205 129.858 9.02 130.678 9.02C131.498 9.02 132.208 9.21 132.808 9.59C133.408 9.96 133.868 10.45 134.188 11.06C134.518 11.67 134.683 12.325 134.683 13.025C134.683 13.275 134.668 13.475 134.638 13.625H128.353C128.383 14.085 128.508 14.49 128.728 14.84C128.958 15.18 129.243 15.45 129.583 15.65C129.933 15.84 130.313 15.935 130.723 15.935C131.163 15.935 131.578 15.825 131.968 15.605C132.358 15.385 132.628 15.095 132.778 14.735L134.188 15.14C133.918 15.73 133.468 16.215 132.838 16.595C132.218 16.965 131.493 17.15 130.663 17.15ZM128.308 12.53H133.048C133.008 12.08 132.878 11.685 132.658 11.345C132.438 10.995 132.153 10.725 131.803 10.535C131.463 10.335 131.083 10.235 130.663 10.235C130.253 10.235 129.873 10.335 129.523 10.535C129.183 10.725 128.903 10.995 128.683 11.345C128.463 11.685 128.338 12.08 128.308 12.53ZM139.554 17.15C138.734 17.15 138.019 16.965 137.409 16.595C136.809 16.215 136.344 15.72 136.014 15.11C135.684 14.49 135.519 13.815 135.519 13.085C135.519 12.355 135.684 11.685 136.014 11.075C136.354 10.455 136.824 9.96 137.424 9.59C138.034 9.21 138.744 9.02 139.554 9.02C140.364 9.02 141.069 9.21 141.669 9.59C142.279 9.96 142.749 10.455 143.079 11.075C143.419 11.685 143.589 12.355 143.589 13.085C143.589 13.815 143.424 14.49 143.094 15.11C142.764 15.72 142.294 16.215 141.684 16.595C141.084 16.965 140.374 17.15 139.554 17.15ZM137.214 13.1C137.214 13.6 137.319 14.05 137.529 14.45C137.739 14.85 138.019 15.165 138.369 15.395C138.719 15.625 139.114 15.74 139.554 15.74C139.984 15.74 140.374 15.625 140.724 15.395C141.084 15.155 141.369 14.835 141.579 14.435C141.789 14.035 141.894 13.585 141.894 13.085C141.894 12.585 141.789 12.135 141.579 11.735C141.369 11.335 141.084 11.02 140.724 10.79C140.374 10.55 139.984 10.43 139.554 10.43C139.124 10.43 138.729 10.55 138.369 10.79C138.019 11.02 137.739 11.34 137.529 11.75C137.319 12.15 137.214 12.6 137.214 13.1Z" fill="black"/>
</g>
<defs>
<filter id="filter0_d" x="15.525" y="0.289993" width="138.064" height="33.905" filterUnits="userSpaceOnUse" color-interpolation-filters="sRGB">
<feFlood flood-opacity="0" result="BackgroundImageFix"/>
<feColorMatrix in="SourceAlpha" type="matrix" values="0 0 0 0 0 0 0 0 0 0 0 0 0 0 0 0 0 0 127 0" result="hardAlpha"/>
<feOffset dy="4"/>
<feGaussianBlur stdDeviation="5"/>
<feComposite in2="hardAlpha" operator="out"/>
<feColorMatrix type="matrix" values="0 0 0 0 0 0 0 0 0 0 0 0 0 0 0 0 0 0 0.2 0"/>
<feBlend mode="normal" in2="BackgroundImageFix" result="effect1_dropShadow"/>
<feBlend mode="normal" in="SourceGraphic" in2="effect1_dropShadow" result="shape"/>
</filter>
</defs>
</svg>
