<svg width="339" height="83" viewBox="0 0 339 83" fill="none" xmlns="http://www.w3.org/2000/svg">
<path d="M25.448 75V49.44H36.968C38.168 49.44 39.272 49.692 40.28 50.196C41.312 50.676 42.2 51.336 42.944 52.176C43.688 52.992 44.264 53.916 44.672 54.948C45.104 55.98 45.32 57.024 45.32 58.08C45.32 59.664 44.936 61.128 44.168 62.472C43.424 63.792 42.416 64.8 41.144 65.496L46.76 75H40.244L35.348 66.756H31.352V75H25.448ZM31.352 61.608H36.752C37.448 61.608 38.048 61.284 38.552 60.636C39.056 59.964 39.308 59.112 39.308 58.08C39.308 57.048 39.02 56.22 38.444 55.596C37.868 54.948 37.244 54.624 36.572 54.624H31.352V61.608ZM60.5503 75.216C58.6543 75.216 56.9263 74.856 55.3663 74.136C53.8303 73.392 52.4983 72.408 51.3703 71.184C50.2423 69.936 49.3783 68.544 48.7783 67.008C48.1783 65.448 47.8783 63.84 47.8783 62.184C47.8783 60.504 48.1903 58.896 48.8143 57.36C49.4623 55.8 50.3503 54.42 51.4783 53.22C52.6303 51.996 53.9863 51.036 55.5463 50.34C57.1063 49.644 58.8103 49.296 60.6583 49.296C62.5543 49.296 64.2703 49.668 65.8063 50.412C67.3663 51.132 68.6983 52.116 69.8023 53.364C70.9303 54.612 71.7943 56.016 72.3943 57.576C72.9943 59.112 73.2943 60.684 73.2943 62.292C73.2943 63.972 72.9703 65.592 72.3223 67.152C71.6983 68.688 70.8103 70.068 69.6583 71.292C68.5303 72.492 67.1863 73.452 65.6263 74.172C64.0903 74.868 62.3983 75.216 60.5503 75.216ZM53.8903 62.256C53.8903 63.576 54.1423 64.824 54.6463 66C55.1503 67.152 55.9063 68.1 56.9143 68.844C57.9223 69.588 59.1463 69.96 60.5863 69.96C62.0743 69.96 63.3103 69.576 64.2943 68.808C65.3023 68.04 66.0463 67.068 66.5263 65.892C67.0303 64.692 67.2823 63.456 67.2823 62.184C67.2823 60.864 67.0183 59.628 66.4903 58.476C65.9863 57.3 65.2303 56.352 64.2223 55.632C63.2383 54.912 62.0263 54.552 60.5863 54.552C59.0983 54.552 57.8503 54.936 56.8423 55.704C55.8583 56.448 55.1143 57.408 54.6103 58.584C54.1303 59.76 53.8903 60.984 53.8903 62.256ZM76.7058 75V49.44H82.6098V69.816H94.9938V75H76.7058ZM115.728 69.816V75H97.7644V49.44H115.404V54.624H103.668V59.592H113.748V64.38H103.668V69.816H115.728ZM119.315 75V49.44H130.223C131.447 49.44 132.563 49.692 133.571 50.196C134.603 50.676 135.491 51.336 136.235 52.176C136.979 52.992 137.555 53.916 137.963 54.948C138.371 55.98 138.575 57.024 138.575 58.08C138.575 59.568 138.227 60.972 137.531 62.292C136.859 63.612 135.911 64.692 134.687 65.532C133.463 66.348 132.035 66.756 130.403 66.756H125.219V75H119.315ZM125.219 61.608H130.043C130.739 61.608 131.339 61.308 131.843 60.708C132.347 60.108 132.599 59.232 132.599 58.08C132.599 56.904 132.299 56.04 131.699 55.488C131.123 54.912 130.499 54.624 129.827 54.624H125.219V61.608ZM141.745 75V49.44H147.649V69.816H160.033V75H141.745ZM169.247 49.44H175.619L184.403 75H178.355L176.375 69.276H168.419L166.475 75H160.427L169.247 49.44ZM175.403 65.208L172.415 55.38L169.355 65.208H175.403ZM188.209 49.44L193.717 60.744L199.297 49.44H205.741L196.633 66.288V75H190.765V66.216L181.801 49.44H188.209Z" fill="#0066FF" fill-opacity="0.1"/>
<path d="M43.96 66V36.39L33.25 57.95H26.95L16.24 36.39V66H4.76V16.3H17.22L30.1 42.27L43.05 16.3H55.44V66H43.96ZM77.5146 16.3H89.9046L106.985 66H95.2246L91.3746 54.87H75.9046L72.1246 66H60.3646L77.5146 16.3ZM89.4846 46.96L83.6746 27.85L77.7246 46.96H89.4846ZM111.879 66V16.3H130.429C135.889 16.3 140.439 17.42 144.079 19.66C147.766 21.8533 150.542 24.84 152.409 28.62C154.276 32.3533 155.209 36.5067 155.209 41.08C155.209 46.12 154.182 50.5067 152.129 54.24C150.076 57.9733 147.182 60.8667 143.449 62.92C139.762 64.9733 135.422 66 130.429 66H111.879ZM143.519 41.08C143.519 36.6933 142.376 33.1467 140.089 30.44C137.802 27.7333 134.582 26.38 130.429 26.38H123.359V55.92H130.429C133.229 55.92 135.609 55.29 137.569 54.03C139.529 52.7233 140.999 50.95 141.979 48.71C143.006 46.47 143.519 43.9267 143.519 41.08ZM173.467 37.58V66H161.987V16.3H171.087L194.117 45.56V16.3H205.597V66H196.217L173.467 37.58ZM250.032 55.92V66H215.102V16.3H249.402V26.38H226.582V36.04H246.182V45.35H226.582V55.92H250.032ZM286.826 30.86C286.686 30.6733 286.196 30.3233 285.356 29.81C284.516 29.2967 283.466 28.76 282.206 28.2C280.946 27.5933 279.569 27.1033 278.076 26.73C276.583 26.31 275.089 26.1 273.596 26.1C269.489 26.1 267.436 27.4767 267.436 30.23C267.436 31.91 268.323 33.1 270.096 33.8C271.916 34.5 274.506 35.34 277.866 36.32C281.039 37.2067 283.769 38.2333 286.056 39.4C288.389 40.52 290.186 42.0367 291.446 43.95C292.706 45.8167 293.336 48.29 293.336 51.37C293.336 54.17 292.823 56.55 291.796 58.51C290.769 60.4233 289.369 61.9867 287.596 63.2C285.823 64.3667 283.816 65.23 281.576 65.79C279.383 66.3033 277.096 66.56 274.716 66.56C271.029 66.56 267.296 66.0233 263.516 64.95C259.736 63.83 256.399 62.3133 253.506 60.4L258.546 50.39C258.733 50.6233 259.339 51.0667 260.366 51.72C261.393 52.3267 262.676 52.98 264.216 53.68C265.756 54.38 267.436 54.9867 269.256 55.5C271.123 55.9667 273.013 56.2 274.926 56.2C278.986 56.2 281.016 54.9633 281.016 52.49C281.016 51.23 280.479 50.25 279.406 49.55C278.379 48.8033 276.956 48.1733 275.136 47.66C273.316 47.1 271.263 46.47 268.976 45.77C264.403 44.37 261.019 42.6667 258.826 40.66C256.679 38.6533 255.606 35.7833 255.606 32.05C255.606 28.55 256.423 25.61 258.056 23.23C259.736 20.8033 261.976 18.9833 264.776 17.77C267.576 16.51 270.633 15.88 273.946 15.88C277.446 15.88 280.759 16.4867 283.886 17.7C287.013 18.8667 289.673 20.08 291.866 21.34L286.826 30.86ZM329.893 30.86C329.753 30.6733 329.263 30.3233 328.423 29.81C327.583 29.2967 326.533 28.76 325.273 28.2C324.013 27.5933 322.636 27.1033 321.143 26.73C319.649 26.31 318.156 26.1 316.663 26.1C312.556 26.1 310.503 27.4767 310.503 30.23C310.503 31.91 311.389 33.1 313.163 33.8C314.983 34.5 317.573 35.34 320.933 36.32C324.106 37.2067 326.836 38.2333 329.123 39.4C331.456 40.52 333.253 42.0367 334.513 43.95C335.773 45.8167 336.403 48.29 336.403 51.37C336.403 54.17 335.889 56.55 334.862 58.51C333.836 60.4233 332.436 61.9867 330.662 63.2C328.889 64.3667 326.883 65.23 324.643 65.79C322.449 66.3033 320.163 66.56 317.783 66.56C314.096 66.56 310.363 66.0233 306.583 64.95C302.803 63.83 299.466 62.3133 296.573 60.4L301.613 50.39C301.799 50.6233 302.406 51.0667 303.433 51.72C304.459 52.3267 305.743 52.98 307.283 53.68C308.823 54.38 310.503 54.9867 312.323 55.5C314.189 55.9667 316.079 56.2 317.993 56.2C322.053 56.2 324.083 54.9633 324.083 52.49C324.083 51.23 323.546 50.25 322.473 49.55C321.446 48.8033 320.023 48.1733 318.203 47.66C316.383 47.1 314.329 46.47 312.043 45.77C307.469 44.37 304.086 42.6667 301.893 40.66C299.746 38.6533 298.673 35.7833 298.673 32.05C298.673 28.55 299.489 25.61 301.123 23.23C302.803 20.8033 305.043 18.9833 307.843 17.77C310.643 16.51 313.699 15.88 317.013 15.88C320.513 15.88 323.826 16.4867 326.953 17.7C330.079 18.8667 332.739 20.08 334.933 21.34L329.893 30.86Z" fill="black"/>
</svg>
